<svg id="wave" viewBox="0 0 1440 0" version="1.1" xmlns="http://www.w3.org/2000/svg"><defs><linearGradient id="sw-gradient-0" x1="0" x2="0" y1="1" y2="0"><stop stop-color="rgba(243, 106, 62, 1)" offset="0%"></stop><stop stop-color="rgba(255, 179, 11, 1)" offset="100%"></stop></linearGradient></defs><path style="transform:translate(0, 0px); opacity:1" fill="url(#sw-gradient-0)" d="M0,196L80,171.5C160,147,320,98,480,122.5C640,147,800,245,960,277.7C1120,310,1280,278,1440,228.7C1600,180,1760,114,1920,81.7C2080,49,2240,49,2400,40.8C2560,33,2720,16,2880,16.3C3040,16,3200,33,3360,89.8C3520,147,3680,245,3840,236.8C4000,229,4160,114,4320,122.5C4480,131,4640,261,4800,269.5C4960,278,5120,163,5280,171.5C5440,180,5600,310,5760,343C5920,376,6080,310,6240,253.2C6400,196,6560,147,6720,147C6880,147,7040,196,7200,212.3C7360,229,7520,212,7680,179.7C7840,147,8000,98,8160,73.5C8320,49,8480,49,8640,49C8800,49,8960,49,9120,40.8C9280,33,9440,16,9600,32.7C9760,49,9920,98,10080,147C10240,196,10400,245,10560,228.7C10720,212,10880,131,11040,138.8C11200,147,11360,245,11440,294L11520,343L11520,490L11440,490C11360,490,11200,490,11040,490C10880,490,10720,490,10560,490C10400,490,10240,490,10080,490C9920,490,9760,490,9600,490C9440,490,9280,490,9120,490C8960,490,8800,490,8640,490C8480,490,8320,490,8160,490C8000,490,7840,490,7680,490C7520,490,7360,490,7200,490C7040,490,6880,490,6720,490C6560,490,6400,490,6240,490C6080,490,5920,490,5760,490C5600,490,5440,490,5280,490C5120,490,4960,490,4800,490C4640,490,4480,490,4320,490C4160,490,4000,490,3840,490C3680,490,3520,490,3360,490C3200,490,3040,490,2880,490C2720,490,2560,490,2400,490C2240,490,2080,490,1920,490C1760,490,1600,490,1440,490C1280,490,1120,490,960,490C800,490,640,490,480,490C320,490,160,490,80,490L0,490Z"></path></svg>